STARTFONT 2.3
FONT -FontForge-Henny Penny-Book-R-Normal--10-100-72-72-P-57-ISO10646-1
SIZE 10 72 72  2
FONTBOUNDINGBOX 15 18 -2 -6
COMMENT "Generated by fontforge, http://fontforge.sourceforge.net"
COMMENT "Copyright (c) 2012, Brownfox (gayaneh.b@gmail.com), with Reserved Font Name "Henny Penny""
STARTPROPERTIES 40
FOUNDRY "FontForge"
FAMILY_NAME "Henny Penny"
WEIGHT_NAME "Book"
SLANT "R"
SETWIDTH_NAME "Normal"
ADD_STYLE_NAME ""
PIXEL_SIZE 10
POINT_SIZE 100
RESOLUTION_X 72
RESOLUTION_Y 72
SPACING "P"
AVERAGE_WIDTH 57
CHARSET_REGISTRY "ISO10646"
CHARSET_ENCODING "1"
FONTNAME_REGISTRY ""
CHARSET_COLLECTIONS "ISO10646-1"
BITS_PER_PIXEL 2
FONT_NAME "HennyPenny-Regular"
FACE_NAME "Henny Penny"
COPYRIGHT "Copyright (c) 2012, Brownfox (gayaneh.b@gmail.com), with Reserved Font Name "Henny Penny""
FONT_VERSION "1.001"
FONT_ASCENT 8
FONT_DESCENT 2
UNDERLINE_POSITION -1
UNDERLINE_THICKNESS 1
X_HEIGHT 6
CAP_HEIGHT 7
RAW_ASCENT 799
RAW_DESCENT 200
NORM_SPACE 3
RELATIVE_WEIGHT 40
RELATIVE_SETWIDTH 50
SUPERSCRIPT_X 0
SUPERSCRIPT_Y 3
SUPERSCRIPT_SIZE 6
SUBSCRIPT_X 0
SUBSCRIPT_Y 0
SUBSCRIPT_SIZE 6
AVG_LOWERCASE_WIDTH 50
AVG_UPPERCASE_WIDTH 71
ENDPROPERTIES
CHARS 233
STARTCHAR space
ENCODING 32
SWIDTH 270 0
DWIDTH 3 0
BBX 1 1 0 0
BITMAP
00
ENDCHAR
STARTCHAR exclam
ENCODING 33
SWIDTH 249 0
DWIDTH 2 0
BBX 2 9 0 0
BITMAP
60
70
70
30
20
20
10
00
60
ENDCHAR
STARTCHAR quotedbl
ENCODING 34
SWIDTH 292 0
DWIDTH 3 0
BBX 3 3 0 5
BITMAP
54
54
54
ENDCHAR
STARTCHAR numbersign
ENCODING 35
SWIDTH 1030 0
DWIDTH 10 0
BBX 9 11 1 -3
BITMAP
004000
005000
011000
569540
044000
095400
660000
210000
540000
040000
100000
ENDCHAR
STARTCHAR dollar
ENCODING 36
SWIDTH 799 0
DWIDTH 8 0
BBX 6 10 1 -1
BITMAP
0010
0BE0
2950
1D00
0F00
0780
45D0
4490
A4C0
6F40
ENDCHAR
STARTCHAR percent
ENCODING 37
SWIDTH 789 0
DWIDTH 8 0
BBX 8 9 0 0
BITMAP
2D04
6310
3D50
0040
0200
0478
14C6
10CA
40B8
ENDCHAR
STARTCHAR ampersand
ENCODING 38
SWIDTH 773 0
DWIDTH 8 0
BBX 8 10 0 -1
BITMAP
0B40
2540
2200
1D18
2848
6904
A314
75D0
2FB5
0028
ENDCHAR
STARTCHAR quotesingle
ENCODING 39
SWIDTH 174 0
DWIDTH 2 0
BBX 2 2 0 6
BITMAP
50
50
ENDCHAR
STARTCHAR parenleft
ENCODING 40
SWIDTH 431 0
DWIDTH 4 0
BBX 4 14 0 -4
BITMAP
04
20
20
50
90
90
D0
90
90
60
30
18
09
02
ENDCHAR
STARTCHAR parenright
ENCODING 41
SWIDTH 443 0
DWIDTH 4 0
BBX 4 10 1 -2
BITMAP
40
60
28
0C
0D
09
0C
18
24
90
ENDCHAR
STARTCHAR asterisk
ENCODING 42
SWIDTH 490 0
DWIDTH 5 0
BBX 5 4 0 5
BITMAP
0800
5A00
1900
1240
ENDCHAR
STARTCHAR plus
ENCODING 43
SWIDTH 440 0
DWIDTH 4 0
BBX 4 5 0 1
BITMAP
04
04
7E
04
04
ENDCHAR
STARTCHAR comma
ENCODING 44
SWIDTH 251 0
DWIDTH 3 0
BBX 2 3 0 -1
BITMAP
70
20
10
ENDCHAR
STARTCHAR hyphen
ENCODING 45
SWIDTH 436 0
DWIDTH 4 0
BBX 4 1 0 2
BITMAP
7E
ENDCHAR
STARTCHAR period
ENCODING 46
SWIDTH 238 0
DWIDTH 2 0
BBX 2 2 0 0
BITMAP
60
60
ENDCHAR
STARTCHAR slash
ENCODING 47
SWIDTH 690 0
DWIDTH 7 0
BBX 7 9 0 0
BITMAP
0004
0010
0040
0140
0100
0400
1400
1000
4000
ENDCHAR
STARTCHAR zero
ENCODING 48
SWIDTH 723 0
DWIDTH 7 0
BBX 7 7 0 1
BITMAP
1BD0
7474
901C
D00C
A01C
7428
1BD0
ENDCHAR
STARTCHAR one
ENCODING 49
SWIDTH 505 0
DWIDTH 5 0
BBX 5 9 0 -1
BITMAP
0400
2C00
9C00
0D00
0900
0A00
0B00
1F80
2400
ENDCHAR
STARTCHAR two
ENCODING 50
SWIDTH 534 0
DWIDTH 5 0
BBX 5 9 0 -1
BITMAP
2E00
4740
4280
0340
0600
1800
6000
1440
0240
ENDCHAR
STARTCHAR three
ENCODING 51
SWIDTH 511 0
DWIDTH 5 0
BBX 5 8 0 -1
BITMAP
BF00
4100
0400
0A00
41C0
40C0
92C0
2F40
ENDCHAR
STARTCHAR four
ENCODING 52
SWIDTH 712 0
DWIDTH 7 0
BBX 7 10 0 -2
BITMAP
0140
0300
0640
1180
9180
1AC0
01F4
0090
01F4
0004
ENDCHAR
STARTCHAR five
ENCODING 53
SWIDTH 757 0
DWIDTH 8 0
BBX 8 9 0 -1
BITMAP
01D1
017C
0404
0680
4060
4070
4070
91E0
2F80
ENDCHAR
STARTCHAR six
ENCODING 54
SWIDTH 598 0
DWIDTH 6 0
BBX 6 8 0 0
BITMAP
1B80
3460
AB80
B0A0
A020
A020
7490
1F80
ENDCHAR
STARTCHAR seven
ENCODING 55
SWIDTH 507 0
DWIDTH 5 0
BBX 5 8 0 0
BITMAP
0040
FF80
8600
4100
0400
0800
1800
2400
ENDCHAR
STARTCHAR eight
ENCODING 56
SWIDTH 476 0
DWIDTH 5 0
BBX 5 8 0 0
BITMAP
2E00
7100
7500
2E00
5640
8180
9180
7E00
ENDCHAR
STARTCHAR nine
ENCODING 57
SWIDTH 601 0
DWIDTH 6 0
BBX 6 8 0 0
BITMAP
2F40
A1D0
D0A0
A0B0
2FE0
00A0
01C0
7E40
ENDCHAR
STARTCHAR colon
ENCODING 58
SWIDTH 246 0
DWIDTH 2 0
BBX 2 5 0 0
BITMAP
60
60
00
00
60
ENDCHAR
STARTCHAR semicolon
ENCODING 59
SWIDTH 266 0
DWIDTH 3 0
BBX 2 7 0 -2
BITMAP
70
70
00
00
70
20
10
ENDCHAR
STARTCHAR less
ENCODING 60
SWIDTH 522 0
DWIDTH 5 0
BBX 3 4 1 1
BITMAP
04
50
90
18
ENDCHAR
STARTCHAR equal
ENCODING 61
SWIDTH 655 0
DWIDTH 7 0
BBX 6 3 0 2
BITMAP
06B0
1400
7E90
ENDCHAR
STARTCHAR greater
ENCODING 62
SWIDTH 533 0
DWIDTH 5 0
BBX 4 5 1 0
BITMAP
50
05
05
10
40
ENDCHAR
STARTCHAR question
ENCODING 63
SWIDTH 564 0
DWIDTH 6 0
BBX 6 10 0 -1
BITMAP
2F40
A1C0
A0D0
B1C0
0740
0400
1000
2400
0000
1400
ENDCHAR
STARTCHAR at
ENCODING 64
SWIDTH 898 0
DWIDTH 9 0
BBX 9 10 0 -3
BITMAP
06F800
190600
200140
57F440
4D3440
4C2440
4D2940
17DE00
246000
0BD000
ENDCHAR
STARTCHAR A
ENCODING 65
SWIDTH 784 0
DWIDTH 8 0
BBX 8 9 0 -1
BITMAP
1F40
0280
05C0
0490
09A0
1AF4
2038
F42C
147F
ENDCHAR
STARTCHAR B
ENCODING 66
SWIDTH 685 0
DWIDTH 7 0
BBX 7 10 0 -2
BITMAP
6BD0
24A0
1860
1940
1FE0
1838
1828
1C34
2FE0
5000
ENDCHAR
STARTCHAR C
ENCODING 67
SWIDTH 742 0
DWIDTH 7 0
BBX 8 9 0 -1
BITMAP
0004
1BF8
7818
A004
E000
E001
B005
7918
1BE0
ENDCHAR
STARTCHAR D
ENCODING 68
SWIDTH 726 0
DWIDTH 7 0
BBX 7 8 0 -2
BITMAP
ABE0
2478
241C
141C
2838
2F90
7400
4000
ENDCHAR
STARTCHAR E
ENCODING 69
SWIDTH 557 0
DWIDTH 6 0
BBX 6 10 0 -2
BITMAP
56C0
7440
3400
2400
2E00
2500
1800
1810
BFD0
0040
ENDCHAR
STARTCHAR F
ENCODING 70
SWIDTH 533 0
DWIDTH 5 0
BBX 6 9 0 0
BITMAP
0690
B850
2840
2900
1E00
1900
1800
1C00
BA00
ENDCHAR
STARTCHAR G
ENCODING 71
SWIDTH 750 0
DWIDTH 8 0
BBX 8 8 0 0
BITMAP
0001
1B84
7428
A014
E014
E1F8
7428
2F94
ENDCHAR
STARTCHAR H
ENCODING 72
SWIDTH 743 0
DWIDTH 7 0
BBX 8 11 0 -1
BITMAP
4000
2F05
28F8
2428
2424
2424
2FF4
2824
2814
28BD
BC00
ENDCHAR
STARTCHAR I
ENCODING 73
SWIDTH 438 0
DWIDTH 4 0
BBX 6 11 -1 -2
BITMAP
3BF0
0B40
0A00
0A00
0900
0900
0900
0900
0900
1F40
5000
ENDCHAR
STARTCHAR J
ENCODING 74
SWIDTH 628 0
DWIDTH 6 0
BBX 7 12 0 -3
BITMAP
0058
0BE0
01C0
00C0
00C0
00C0
00C0
00C0
0180
B240
FA00
B800
ENDCHAR
STARTCHAR K
ENCODING 75
SWIDTH 866 0
DWIDTH 9 0
BBX 9 10 0 -1
BITMAP
044000
F87D00
345000
254000
2F4000
2AC040
24F480
282F40
3D0000
010000
ENDCHAR
STARTCHAR L
ENCODING 76
SWIDTH 660 0
DWIDTH 7 0
BBX 7 9 0 0
BITMAP
4000
BF40
1D00
1C00
1C00
1C10
1C20
7FF4
1000
ENDCHAR
STARTCHAR M
ENCODING 77
SWIDTH 1089 0
DWIDTH 11 0
BBX 11 8 0 -1
BITMAP
0000B4
1900C0
0580C0
016080
003090
000070
D000BC
A00140
ENDCHAR
STARTCHAR N
ENCODING 78
SWIDTH 799 0
DWIDTH 8 0
BBX 8 10 0 -3
BITMAP
FC3F
2E08
1784
12D4
10B8
1038
1014
2000
FC00
0400
ENDCHAR
STARTCHAR O
ENCODING 79
SWIDTH 747 0
DWIDTH 7 0
BBX 8 7 0 0
BITMAP
1FE0
7478
901D
D00D
A00D
7428
1BE0
ENDCHAR
STARTCHAR P
ENCODING 80
SWIDTH 623 0
DWIDTH 6 0
BBX 7 8 0 -1
BITMAP
FFE0
1C34
0C70
0FD0
0C00
1C00
1C00
6E40
ENDCHAR
STARTCHAR Q
ENCODING 81
SWIDTH 804 0
DWIDTH 8 0
BBX 12 12 0 -4
BITMAP
0BE400
346D00
900A00
D00700
D0A600
A15E00
791D00
1BE900
000A00
000741
000385
0001F4
ENDCHAR
STARTCHAR R
ENCODING 82
SWIDTH 869 0
DWIDTH 9 0
BBX 9 7 0 0
BITMAP
FFD000
287000
18B000
1FD000
19C040
18B440
BE2F40
ENDCHAR
STARTCHAR S
ENCODING 83
SWIDTH 517 0
DWIDTH 5 0
BBX 5 9 0 -1
BITMAP
1E40
2480
2440
0900
0300
4180
80C0
A1C0
4B40
ENDCHAR
STARTCHAR T
ENCODING 84
SWIDTH 659 0
DWIDTH 7 0
BBX 7 10 0 -1
BITMAP
BFFC
8148
4244
0240
0240
0240
0240
0380
0BF4
1900
ENDCHAR
STARTCHAR U
ENCODING 85
SWIDTH 690 0
DWIDTH 7 0
BBX 8 7 0 0
BITMAP
1640
FDFD
3824
2810
2810
1D20
0BD0
ENDCHAR
STARTCHAR V
ENCODING 86
SWIDTH 798 0
DWIDTH 8 0
BBX 9 8 0 0
BITMAP
010000
FE0280
1D2E00
070800
038400
01E000
00E000
005000
ENDCHAR
STARTCHAR W
ENCODING 87
SWIDTH 1120 0
DWIDTH 11 0
BBX 13 9 0 -1
BITMAP
00001000
00002F40
14000800
74101400
18741000
0D5C5000
0B0E4000
050B4000
00020000
ENDCHAR
STARTCHAR X
ENCODING 88
SWIDTH 868 0
DWIDTH 9 0
BBX 8 9 0 -1
BITMAP
0140
FF40
0B47
02D8
00F0
0124
0508
BD7E
0500
ENDCHAR
STARTCHAR Y
ENCODING 89
SWIDTH 796 0
DWIDTH 8 0
BBX 9 11 0 -2
BITMAP
050400
FD0B80
2C0400
0B5000
02D000
00C000
00C000
00C000
01D000
0BE000
001000
ENDCHAR
STARTCHAR Z
ENCODING 90
SWIDTH 627 0
DWIDTH 6 0
BBX 7 9 0 -1
BITMAP
4000
7F80
4300
0600
0900
0810
1420
2AF4
2500
ENDCHAR
STARTCHAR bracketleft
ENCODING 91
SWIDTH 344 0
DWIDTH 3 0
BBX 3 10 0 -2
BITMAP
38
60
60
90
90
90
90
D0
D0
BC
ENDCHAR
STARTCHAR backslash
ENCODING 92
SWIDTH 347 0
DWIDTH 3 0
BBX 4 10 0 -1
BITMAP
40
40
10
10
10
10
04
04
04
01
ENDCHAR
STARTCHAR bracketright
ENCODING 93
SWIDTH 334 0
DWIDTH 3 0
BBX 4 10 0 -3
BITMAP
78
18
1C
1C
1C
1C
1C
1D
28
40
ENDCHAR
STARTCHAR asciicircum
ENCODING 94
SWIDTH 658 0
DWIDTH 7 0
BBX 6 2 0 6
BITMAP
1A40
6AB0
ENDCHAR
STARTCHAR underscore
ENCODING 95
SWIDTH 678 0
DWIDTH 7 0
BBX 6 2 1 -4
BITMAP
6BD0
4000
ENDCHAR
STARTCHAR grave
ENCODING 96
SWIDTH 278 0
DWIDTH 3 0
BBX 2 2 0 7
BITMAP
50
10
ENDCHAR
STARTCHAR a
ENCODING 97
SWIDTH 527 0
DWIDTH 5 0
BBX 6 7 0 -1
BITMAP
2D00
5700
7300
7F40
9340
7A90
00D0
ENDCHAR
STARTCHAR b
ENCODING 98
SWIDTH 582 0
DWIDTH 6 0
BBX 7 12 -1 -1
BITMAP
1400
B800
1800
1800
1800
0800
0EE0
0D28
0C28
0D24
1FE0
2400
ENDCHAR
STARTCHAR c
ENCODING 99
SWIDTH 437 0
DWIDTH 4 0
BBX 4 6 0 1
BITMAP
2E
57
80
81
A1
2E
ENDCHAR
STARTCHAR d
ENCODING 100
SWIDTH 523 0
DWIDTH 5 0
BBX 6 9 0 0
BITMAP
0B80
0280
0240
0240
0240
7F40
A240
A240
7FD0
ENDCHAR
STARTCHAR e
ENCODING 101
SWIDTH 434 0
DWIDTH 4 0
BBX 4 5 0 0
BITMAP
2E
A3
BE
A1
2E
ENDCHAR
STARTCHAR f
ENCODING 102
SWIDTH 299 0
DWIDTH 3 0
BBX 6 13 -1 -2
BITMAP
02D0
0560
08D0
0800
7F40
0C00
0C00
0C00
0C00
0C00
0D00
2F40
1000
ENDCHAR
STARTCHAR g
ENCODING 103
SWIDTH 567 0
DWIDTH 6 0
BBX 6 10 0 -4
BITMAP
01E0
2F60
A240
A240
3E00
2E40
61D0
D090
E180
7E40
ENDCHAR
STARTCHAR h
ENCODING 104
SWIDTH 566 0
DWIDTH 6 0
BBX 7 10 -1 0
BITMAP
0900
3C00
0800
0800
0800
0AD0
0D60
0C60
1870
7DF8
ENDCHAR
STARTCHAR i
ENCODING 105
SWIDTH 301 0
DWIDTH 3 0
BBX 3 7 0 1
BITMAP
30
00
B4
30
30
30
B8
ENDCHAR
STARTCHAR j
ENCODING 106
SWIDTH 367 0
DWIDTH 4 0
BBX 5 11 -1 -5
BITMAP
0600
0000
1F00
0740
0240
0240
0140
B140
9200
8600
7800
ENDCHAR
STARTCHAR k
ENCODING 107
SWIDTH 567 0
DWIDTH 6 0
BBX 7 11 -1 -1
BITMAP
B800
0800
0800
0800
0840
0DF0
0D40
0F04
0E84
0DB4
2B80
ENDCHAR
STARTCHAR l
ENCODING 108
SWIDTH 354 0
DWIDTH 4 0
BBX 5 9 -1 0
BITMAP
1800
6D00
0D00
0900
0900
0900
0500
0600
1F40
ENDCHAR
STARTCHAR m
ENCODING 109
SWIDTH 708 0
DWIDTH 7 0
BBX 7 5 0 0
BITMAP
1000
7BB4
27A4
7824
0004
ENDCHAR
STARTCHAR n
ENCODING 110
SWIDTH 584 0
DWIDTH 6 0
BBX 6 7 0 -1
BITMAP
1000
72C0
3490
2490
1490
7EC0
0050
ENDCHAR
STARTCHAR o
ENCODING 111
SWIDTH 503 0
DWIDTH 5 0
BBX 5 5 0 1
BITMAP
2E00
A280
9180
A180
2E00
ENDCHAR
STARTCHAR p
ENCODING 112
SWIDTH 509 0
DWIDTH 5 0
BBX 5 9 0 -4
BITMAP
B000
2B40
25C0
2580
2F40
3400
3400
3400
BC00
ENDCHAR
STARTCHAR q
ENCODING 113
SWIDTH 505 0
DWIDTH 5 0
BBX 5 10 0 -4
BITMAP
0240
7F00
9300
7F00
0300
0300
0300
0300
1F80
0180
ENDCHAR
STARTCHAR r
ENCODING 114
SWIDTH 414 0
DWIDTH 4 0
BBX 5 7 0 0
BITMAP
BB80
3980
3400
2400
2400
2800
BD00
ENDCHAR
STARTCHAR s
ENCODING 115
SWIDTH 482 0
DWIDTH 5 0
BBX 5 7 0 -1
BITMAP
1E40
2500
0400
1200
5180
5280
0F40
ENDCHAR
STARTCHAR t
ENCODING 116
SWIDTH 434 0
DWIDTH 4 0
BBX 4 8 0 0
BITMAP
08
18
BE
34
30
70
36
2E
ENDCHAR
STARTCHAR u
ENCODING 117
SWIDTH 744 0
DWIDTH 7 0
BBX 8 5 0 0
BITMAP
B1E0
2430
1830
1C6D
0B40
ENDCHAR
STARTCHAR v
ENCODING 118
SWIDTH 600 0
DWIDTH 6 0
BBX 5 6 1 0
BITMAP
5000
A380
7100
2500
1D00
0800
ENDCHAR
STARTCHAR w
ENCODING 119
SWIDTH 745 0
DWIDTH 7 0
BBX 8 6 0 0
BITMAP
1409
F448
39D4
29A0
1C60
0800
ENDCHAR
STARTCHAR x
ENCODING 120
SWIDTH 548 0
DWIDTH 5 0
BBX 6 6 0 1
BITMAP
0900
F800
2ED0
0A00
1E00
6BC0
ENDCHAR
STARTCHAR y
ENCODING 121
SWIDTH 659 0
DWIDTH 7 0
BBX 7 11 0 -5
BITMAP
1800
B5F4
3070
3470
28A0
0B60
0060
0050
1C80
1180
2E00
ENDCHAR
STARTCHAR z
ENCODING 122
SWIDTH 460 0
DWIDTH 5 0
BBX 5 5 0 0
BITMAP
BE00
4500
0800
2440
7F80
ENDCHAR
STARTCHAR braceleft
ENCODING 123
SWIDTH 460 0
DWIDTH 5 0
BBX 5 13 0 -3
BITMAP
0B40
0800
1800
0C00
0C00
2800
6000
1400
0C00
0C00
1C00
0D40
0B40
ENDCHAR
STARTCHAR bar
ENCODING 124
SWIDTH 368 0
DWIDTH 4 0
BBX 1 10 1 -1
BITMAP
40
40
40
40
40
40
40
40
40
40
ENDCHAR
STARTCHAR braceright
ENCODING 125
SWIDTH 476 0
DWIDTH 5 0
BBX 5 11 0 -3
BITMAP
B800
1D00
0D00
0900
0240
0200
0200
0240
0180
0240
0E00
ENDCHAR
STARTCHAR asciitilde
ENCODING 126
SWIDTH 733 0
DWIDTH 7 0
BBX 7 2 0 2
BITMAP
2E04
46F0
ENDCHAR
STARTCHAR nonbreakingspace
ENCODING 160
SWIDTH 270 0
DWIDTH 3 0
BBX 1 1 0 0
BITMAP
00
ENDCHAR
STARTCHAR exclamdown
ENCODING 161
SWIDTH 247 0
DWIDTH 2 0
BBX 2 11 0 -1
BITMAP
60
00
00
10
20
20
20
70
70
70
60
ENDCHAR
STARTCHAR cent
ENCODING 162
SWIDTH 799 0
DWIDTH 8 0
BBX 5 9 1 -2
BITMAP
0400
1F80
3880
64C0
6100
3540
1F40
0100
0040
ENDCHAR
STARTCHAR sterling
ENCODING 163
SWIDTH 799 0
DWIDTH 8 0
BBX 6 9 1 -1
BITMAP
0B80
24C0
35C0
2400
6D00
0D00
0A00
7E10
7AE0
ENDCHAR
STARTCHAR currency
ENCODING 164
SWIDTH 732 0
DWIDTH 7 0
BBX 7 7 0 0
BITMAP
0040
2FD0
2020
6050
2F90
2014
1000
ENDCHAR
STARTCHAR yen
ENCODING 165
SWIDTH 799 0
DWIDTH 8 0
BBX 8 11 0 -2
BITMAP
0100
7D05
1E38
0750
02D0
01C0
0BFD
05F4
01C0
07F0
0500
ENDCHAR
STARTCHAR brokenbar
ENCODING 166
SWIDTH 341 0
DWIDTH 3 0
BBX 1 12 1 -3
BITMAP
40
40
40
40
00
00
40
40
40
40
40
40
ENDCHAR
STARTCHAR section
ENCODING 167
SWIDTH 546 0
DWIDTH 5 0
BBX 5 11 0 -3
BITMAP
1F40
3180
3400
2E00
5280
6080
2D40
0740
0080
1840
1E00
ENDCHAR
STARTCHAR dieresis
ENCODING 168
SWIDTH 393 0
DWIDTH 4 0
BBX 3 1 1 6
BITMAP
A4
ENDCHAR
STARTCHAR copyright
ENCODING 169
SWIDTH 1023 0
DWIDTH 10 0
BBX 10 9 0 -2
BITMAP
06F900
191680
22E050
461020
461420
42E020
100090
290640
06F900
ENDCHAR
STARTCHAR ordfeminine
ENCODING 170
SWIDTH 558 0
DWIDTH 6 0
BBX 5 5 0 3
BITMAP
7D00
5600
2E00
6640
7A80
ENDCHAR
STARTCHAR guillemotleft
ENCODING 171
SWIDTH 608 0
DWIDTH 6 0
BBX 6 8 0 -2
BITMAP
0010
0140
0880
2980
79C0
0C50
0610
0100
ENDCHAR
STARTCHAR logicalnot
ENCODING 172
SWIDTH 616 0
DWIDTH 6 0
BBX 6 3 0 2
BITMAP
7EA0
0010
0010
ENDCHAR
STARTCHAR uni00AD
ENCODING 173
SWIDTH 436 0
DWIDTH 4 0
BBX 4 1 0 2
BITMAP
7E
ENDCHAR
STARTCHAR registered
ENCODING 174
SWIDTH 1048 0
DWIDTH 10 0
BBX 10 9 0 -2
BITMAP
06FE00
190180
27F810
425810
41F410
52B510
2BEE10
190180
06FE00
ENDCHAR
STARTCHAR macron
ENCODING 175
SWIDTH 382 0
DWIDTH 4 0
BBX 4 1 0 8
BITMAP
7D
ENDCHAR
STARTCHAR degree
ENCODING 176
SWIDTH 346 0
DWIDTH 3 0
BBX 3 2 0 8
BITMAP
78
78
ENDCHAR
STARTCHAR plusminus
ENCODING 177
SWIDTH 580 0
DWIDTH 6 0
BBX 5 4 0 1
BITMAP
0500
7F80
0000
7A40
ENDCHAR
STARTCHAR twosuperior
ENCODING 178
SWIDTH 365 0
DWIDTH 4 0
BBX 4 6 0 3
BITMAP
28
09
08
14
64
14
ENDCHAR
STARTCHAR threesuperior
ENCODING 179
SWIDTH 371 0
DWIDTH 4 0
BBX 4 5 0 4
BITMAP
74
14
09
49
78
ENDCHAR
STARTCHAR acute
ENCODING 180
SWIDTH 234 0
DWIDTH 2 0
BBX 2 2 0 8
BITMAP
20
40
ENDCHAR
STARTCHAR mu
ENCODING 181
SWIDTH 634 0
DWIDTH 6 0
BBX 7 8 0 -3
BITMAP
9000
9180
9180
B1C4
6EB4
6000
6000
6000
ENDCHAR
STARTCHAR paragraph
ENCODING 182
SWIDTH 707 0
DWIDTH 7 0
BBX 7 13 0 -4
BITMAP
0014
2FE0
BD50
FC50
BC50
1C50
0850
0850
0960
0960
097C
1D00
6400
ENDCHAR
STARTCHAR periodcentered
ENCODING 183
SWIDTH 238 0
DWIDTH 2 0
BBX 2 2 0 3
BITMAP
60
60
ENDCHAR
STARTCHAR cedilla
ENCODING 184
SWIDTH 332 0
DWIDTH 3 0
BBX 3 3 0 -2
BITMAP
10
18
78
ENDCHAR
STARTCHAR onesuperior
ENCODING 185
SWIDTH 336 0
DWIDTH 3 0
BBX 3 4 0 5
BITMAP
14
14
68
6C
ENDCHAR
STARTCHAR ordmasculine
ENCODING 186
SWIDTH 503 0
DWIDTH 5 0
BBX 5 5 0 3
BITMAP
2E00
4280
8080
6180
2E00
ENDCHAR
STARTCHAR guillemotright
ENCODING 187
SWIDTH 778 0
DWIDTH 8 0
BBX 7 9 0 -3
BITMAP
0100
5080
2964
076C
0960
1480
2140
0100
0100
ENDCHAR
STARTCHAR onequarter
ENCODING 188
SWIDTH 876 0
DWIDTH 9 0
BBX 9 9 0 0
BITMAP
140400
140400
681000
6C4400
015800
010900
047F00
100900
101F80
ENDCHAR
STARTCHAR onehalf
ENCODING 189
SWIDTH 762 0
DWIDTH 8 0
BBX 7 10 0 -1
BITMAP
1404
1404
6810
6C40
0168
010C
0408
1014
1064
0014
ENDCHAR
STARTCHAR threequarters
ENCODING 190
SWIDTH 922 0
DWIDTH 9 0
BBX 9 9 0 0
BITMAP
740100
140400
091400
491400
784900
010540
012F40
040600
100FC0
ENDCHAR
STARTCHAR questiondown
ENCODING 191
SWIDTH 571 0
DWIDTH 6 0
BBX 6 10 0 -2
BITMAP
0A00
0A00
0000
0100
0500
1800
72D0
B190
B490
2F80
ENDCHAR
STARTCHAR Agrave
ENCODING 192
SWIDTH 784 0
DWIDTH 8 0
BBX 8 11 0 -1
BITMAP
1800
0400
1F40
0280
05C0
0490
09A0
1AF4
2038
F42C
147F
ENDCHAR
STARTCHAR Aacute
ENCODING 193
SWIDTH 784 0
DWIDTH 8 0
BBX 8 12 0 -1
BITMAP
0140
0100
0000
1F40
0280
05C0
0490
09A0
1AF4
2038
F42C
147F
ENDCHAR
STARTCHAR Acircumflex
ENCODING 194
SWIDTH 784 0
DWIDTH 8 0
BBX 8 12 0 -1
BITMAP
0280
04A0
0000
1F40
0280
05C0
0490
09A0
1AF4
2038
F42C
147F
ENDCHAR
STARTCHAR Atilde
ENCODING 195
SWIDTH 784 0
DWIDTH 8 0
BBX 8 11 0 -1
BITMAP
0E00
02C0
1F40
0280
05C0
0490
09A0
1AF4
2038
F42C
147F
ENDCHAR
STARTCHAR Adieresis
ENCODING 196
SWIDTH 784 0
DWIDTH 8 0
BBX 8 11 0 -1
BITMAP
0980
0000
1F40
0280
05C0
0490
09A0
1AF4
2038
F42C
147F
ENDCHAR
STARTCHAR Aring
ENCODING 197
SWIDTH 784 0
DWIDTH 8 0
BBX 8 12 0 -1
BITMAP
0380
0540
0380
1F40
0280
05C0
0490
09A0
1AF4
2038
F42C
147F
ENDCHAR
STARTCHAR AE
ENCODING 198
SWIDTH 1172 0
DWIDTH 12 0
BBX 12 10 0 -2
BITMAP
0005B0
00FE60
001C10
001D50
004BD0
004A11
02FE01
060B0A
180B90
FE1400
ENDCHAR
STARTCHAR Ccedilla
ENCODING 199
SWIDTH 742 0
DWIDTH 7 0
BBX 8 12 0 -4
BITMAP
0004
1BF8
7818
A004
E000
E001
B005
7918
1BE0
0040
0090
02C0
ENDCHAR
STARTCHAR Egrave
ENCODING 200
SWIDTH 557 0
DWIDTH 6 0
BBX 6 12 0 -2
BITMAP
2000
1400
56C0
7440
3400
2400
2E00
2500
1800
1810
BFD0
0040
ENDCHAR
STARTCHAR Eacute
ENCODING 201
SWIDTH 557 0
DWIDTH 6 0
BBX 6 13 0 -2
BITMAP
0200
0500
0000
56C0
7440
3400
2400
2E00
2500
1800
1810
BFD0
0040
ENDCHAR
STARTCHAR Ecircumflex
ENCODING 202
SWIDTH 557 0
DWIDTH 6 0
BBX 6 13 0 -2
BITMAP
0A00
1280
0000
56C0
7440
3400
2400
2E00
2500
1800
1810
BFD0
0040
ENDCHAR
STARTCHAR Edieresis
ENCODING 203
SWIDTH 557 0
DWIDTH 6 0
BBX 6 12 0 -2
BITMAP
2600
0000
56C0
7440
3400
2400
2E00
2500
1800
1810
BFD0
0040
ENDCHAR
STARTCHAR Igrave
ENCODING 204
SWIDTH 438 0
DWIDTH 4 0
BBX 6 12 -1 -2
BITMAP
0800
3FF0
0B40
0A00
0A00
0900
0900
0900
0900
0900
1F40
5000
ENDCHAR
STARTCHAR Iacute
ENCODING 205
SWIDTH 438 0
DWIDTH 4 0
BBX 6 13 -1 -2
BITMAP
0080
0100
3BF0
0B40
0A00
0A00
0900
0900
0900
0900
0900
1F40
5000
ENDCHAR
STARTCHAR Icircumflex
ENCODING 206
SWIDTH 438 0
DWIDTH 4 0
BBX 6 13 -1 -2
BITMAP
0240
0490
3BF0
0B40
0A00
0A00
0900
0900
0900
0900
0900
1F40
5000
ENDCHAR
STARTCHAR Idieresis
ENCODING 207
SWIDTH 438 0
DWIDTH 4 0
BBX 6 12 -1 -2
BITMAP
0D80
3BF0
0B40
0A00
0A00
0900
0900
0900
0900
0900
1F40
5000
ENDCHAR
STARTCHAR Eth
ENCODING 208
SWIDTH 730 0
DWIDTH 7 0
BBX 8 8 0 -2
BITMAP
6FE0
287C
182D
BD1D
182C
2878
3F90
5000
ENDCHAR
STARTCHAR Ntilde
ENCODING 209
SWIDTH 799 0
DWIDTH 8 0
BBX 8 13 0 -3
BITMAP
0280
0074
0000
FC3F
2E08
1784
12D4
10B8
1038
1014
2000
FC00
0400
ENDCHAR
STARTCHAR Ograve
ENCODING 210
SWIDTH 747 0
DWIDTH 7 0
BBX 8 10 0 0
BITMAP
0800
0500
0000
1FE0
7478
901D
D00D
A00D
7428
1BE0
ENDCHAR
STARTCHAR Oacute
ENCODING 211
SWIDTH 747 0
DWIDTH 7 0
BBX 8 11 0 0
BITMAP
0140
0100
0000
0000
1FE0
7478
901D
D00D
A00D
7428
1BE0
ENDCHAR
STARTCHAR Ocircumflex
ENCODING 212
SWIDTH 747 0
DWIDTH 7 0
BBX 8 11 0 0
BITMAP
0240
0490
0000
0000
1FE0
7478
901D
D00D
A00D
7428
1BE0
ENDCHAR
STARTCHAR Otilde
ENCODING 213
SWIDTH 747 0
DWIDTH 7 0
BBX 8 10 0 0
BITMAP
0A00
02D0
0000
1FE0
7478
901D
D00D
A00D
7428
1BE0
ENDCHAR
STARTCHAR Odieresis
ENCODING 214
SWIDTH 747 0
DWIDTH 7 0
BBX 8 10 0 0
BITMAP
0980
0000
0000
1FE0
7478
901D
D00D
A00D
7428
1BE0
ENDCHAR
STARTCHAR multiply
ENCODING 215
SWIDTH 541 0
DWIDTH 5 0
BBX 5 6 0 0
BITMAP
0040
1100
1900
0500
1000
4000
ENDCHAR
STARTCHAR Oslash
ENCODING 216
SWIDTH 747 0
DWIDTH 7 0
BBX 8 9 0 -1
BITMAP
0004
1FE4
7478
905D
D10D
A40D
7828
2BE0
4000
ENDCHAR
STARTCHAR Ugrave
ENCODING 217
SWIDTH 690 0
DWIDTH 7 0
BBX 8 10 0 0
BITMAP
0600
0140
0000
1640
FDFD
3824
2810
2810
1D20
0BD0
ENDCHAR
STARTCHAR Uacute
ENCODING 218
SWIDTH 690 0
DWIDTH 7 0
BBX 8 10 0 0
BITMAP
0014
0010
0000
1640
FDFD
3824
2810
2810
1D20
0BD0
ENDCHAR
STARTCHAR Ucircumflex
ENCODING 219
SWIDTH 690 0
DWIDTH 7 0
BBX 8 10 0 0
BITMAP
0190
0170
0000
1640
FDFD
3824
2810
2810
1D20
0BD0
ENDCHAR
STARTCHAR Udieresis
ENCODING 220
SWIDTH 690 0
DWIDTH 7 0
BBX 8 10 0 0
BITMAP
0360
0000
0000
1640
FDFD
3824
2810
2810
1D20
0BD0
ENDCHAR
STARTCHAR Yacute
ENCODING 221
SWIDTH 796 0
DWIDTH 8 0
BBX 9 13 0 -2
BITMAP
001400
001000
050400
FD0B80
2C0400
0B5000
02D000
00C000
00C000
00C000
01D000
0BE000
001000
ENDCHAR
STARTCHAR Thorn
ENCODING 222
SWIDTH 479 0
DWIDTH 5 0
BBX 5 10 0 -1
BITMAP
BC00
3400
2F40
22C0
21C0
3F40
3000
3000
3000
B800
ENDCHAR
STARTCHAR germandbls
ENCODING 223
SWIDTH 591 0
DWIDTH 6 0
BBX 6 11 0 -1
BITMAP
7800
8900
8500
8000
9E40
82D0
50A0
6060
3060
7780
4000
ENDCHAR
STARTCHAR agrave
ENCODING 224
SWIDTH 527 0
DWIDTH 5 0
BBX 6 9 0 -1
BITMAP
9000
2000
2D00
5700
7300
7F40
9340
7A90
00D0
ENDCHAR
STARTCHAR aacute
ENCODING 225
SWIDTH 527 0
DWIDTH 5 0
BBX 6 10 0 -1
BITMAP
0500
0400
0000
2D00
5700
7300
7F40
9340
7A90
00D0
ENDCHAR
STARTCHAR acircumflex
ENCODING 226
SWIDTH 527 0
DWIDTH 5 0
BBX 6 10 0 -1
BITMAP
0900
1240
0000
2D00
5700
7300
7F40
9340
7A90
00D0
ENDCHAR
STARTCHAR atilde
ENCODING 227
SWIDTH 527 0
DWIDTH 5 0
BBX 6 9 0 -1
BITMAP
2800
0B00
2D00
5700
7300
7F40
9340
7A90
00D0
ENDCHAR
STARTCHAR adieresis
ENCODING 228
SWIDTH 527 0
DWIDTH 5 0
BBX 6 8 0 -1
BITMAP
2900
2D00
5700
7300
7F40
9340
7A90
00D0
ENDCHAR
STARTCHAR aring
ENCODING 229
SWIDTH 527 0
DWIDTH 5 0
BBX 6 10 0 -1
BITMAP
1D00
2100
1D00
2D00
5700
7300
7F40
9340
7A90
00D0
ENDCHAR
STARTCHAR ae
ENCODING 230
SWIDTH 700 0
DWIDTH 7 0
BBX 7 7 0 -1
BITMAP
00B4
7518
9924
2FE0
9904
8B48
76F4
ENDCHAR
STARTCHAR ccedilla
ENCODING 231
SWIDTH 437 0
DWIDTH 4 0
BBX 4 9 0 -2
BITMAP
2E
57
80
81
A1
2E
08
15
1D
ENDCHAR
STARTCHAR egrave
ENCODING 232
SWIDTH 434 0
DWIDTH 4 0
BBX 4 8 0 0
BITMAP
60
14
00
2E
A3
BE
A1
2E
ENDCHAR
STARTCHAR eacute
ENCODING 233
SWIDTH 434 0
DWIDTH 4 0
BBX 4 9 0 0
BITMAP
05
04
00
00
2E
A3
BE
A1
2E
ENDCHAR
STARTCHAR ecircumflex
ENCODING 234
SWIDTH 434 0
DWIDTH 4 0
BBX 5 9 0 0
BITMAP
1900
1240
0000
0000
2E00
A300
BE00
A100
2E00
ENDCHAR
STARTCHAR edieresis
ENCODING 235
SWIDTH 434 0
DWIDTH 4 0
BBX 4 7 0 0
BITMAP
29
00
2E
A3
BE
A1
2E
ENDCHAR
STARTCHAR igrave
ENCODING 236
SWIDTH 301 0
DWIDTH 3 0
BBX 4 8 -1 1
BITMAP
60
14
00
2D
0C
0C
0C
2E
ENDCHAR
STARTCHAR iacute
ENCODING 237
SWIDTH 301 0
DWIDTH 3 0
BBX 3 8 0 1
BITMAP
14
10
00
B4
30
30
30
B8
ENDCHAR
STARTCHAR icircumflex
ENCODING 238
SWIDTH 301 0
DWIDTH 3 0
BBX 4 8 0 1
BITMAP
24
49
00
B4
30
30
30
B8
ENDCHAR
STARTCHAR idieresis
ENCODING 239
SWIDTH 301 0
DWIDTH 3 0
BBX 3 6 0 1
BITMAP
68
B4
30
30
30
B8
ENDCHAR
STARTCHAR eth
ENCODING 240
SWIDTH 476 0
DWIDTH 5 0
BBX 6 9 -1 -1
BITMAP
7E00
0280
0080
0090
0BE0
18A0
1860
1C50
0B80
ENDCHAR
STARTCHAR ntilde
ENCODING 241
SWIDTH 584 0
DWIDTH 6 0
BBX 6 9 0 -1
BITMAP
0A00
02D0
1000
72C0
3490
2490
1490
7EC0
0050
ENDCHAR
STARTCHAR ograve
ENCODING 242
SWIDTH 400 0
DWIDTH 4 0
BBX 7 8 0 2
BITMAP
0028
0008
5014
2060
6B80
9600
9A00
7D00
ENDCHAR
STARTCHAR oacute
ENCODING 243
SWIDTH 400 0
DWIDTH 4 0
BBX 7 8 0 2
BITMAP
0028
0508
0414
0060
6B80
9600
9A00
7D00
ENDCHAR
STARTCHAR ocircumflex
ENCODING 244
SWIDTH 400 0
DWIDTH 4 0
BBX 7 8 0 2
BITMAP
0028
1908
1714
0060
6B80
9600
9A00
7D00
ENDCHAR
STARTCHAR otilde
ENCODING 245
SWIDTH 400 0
DWIDTH 4 0
BBX 7 8 0 2
BITMAP
0028
0008
3814
0B60
6B80
9600
9A00
7D00
ENDCHAR
STARTCHAR odieresis
ENCODING 246
SWIDTH 400 0
DWIDTH 4 0
BBX 7 8 0 2
BITMAP
0028
0008
0014
2960
6B80
9600
9A00
7D00
ENDCHAR
STARTCHAR divide
ENCODING 247
SWIDTH 592 0
DWIDTH 6 0
BBX 6 5 0 1
BITMAP
0900
0000
7FD0
0000
0900
ENDCHAR
STARTCHAR oslash
ENCODING 248
SWIDTH 396 0
DWIDTH 4 0
BBX 4 6 0 1
BITMAP
04
7D
9A
A6
7D
10
ENDCHAR
STARTCHAR ugrave
ENCODING 249
SWIDTH 744 0
DWIDTH 7 0
BBX 8 7 0 0
BITMAP
0800
0200
B1E0
2430
1830
1C6D
0B40
ENDCHAR
STARTCHAR uacute
ENCODING 250
SWIDTH 744 0
DWIDTH 7 0
BBX 8 8 0 0
BITMAP
0140
0100
0000
B1E0
2430
1830
1C6D
0B40
ENDCHAR
STARTCHAR ucircumflex
ENCODING 251
SWIDTH 744 0
DWIDTH 7 0
BBX 8 8 0 0
BITMAP
0640
15C0
0000
B1E0
2430
1830
1C6D
0B40
ENDCHAR
STARTCHAR udieresis
ENCODING 252
SWIDTH 744 0
DWIDTH 7 0
BBX 8 7 0 0
BITMAP
0680
0000
B1E0
2430
1830
1C6D
0B40
ENDCHAR
STARTCHAR yacute
ENCODING 253
SWIDTH 659 0
DWIDTH 7 0
BBX 7 13 0 -5
BITMAP
0080
0140
1800
B5F4
3070
3470
28A0
0B60
0060
0050
1C80
1180
2E00
ENDCHAR
STARTCHAR thorn
ENCODING 254
SWIDTH 514 0
DWIDTH 5 0
BBX 6 14 -1 -5
BITMAP
0800
7400
2400
1400
1F80
18A0
1870
18B0
1FD0
1800
1C00
1C00
1D00
3F40
ENDCHAR
STARTCHAR ydieresis
ENCODING 255
SWIDTH 659 0
DWIDTH 7 0
BBX 7 12 0 -5
BITMAP
0280
1800
B5F4
3070
3470
28A0
0B60
0060
0050
1C80
1180
2E00
ENDCHAR
STARTCHAR dotlessi
ENCODING 305
SWIDTH 301 0
DWIDTH 3 0
BBX 3 5 0 1
BITMAP
B4
30
30
30
B8
ENDCHAR
STARTCHAR OE
ENCODING 338
SWIDTH 1132 0
DWIDTH 11 0
BBX 12 11 0 -2
BITMAP
000020
1BDBF4
746E00
A00E00
D00A10
E00BA0
B00A10
391E01
1BEB09
001BFD
001400
ENDCHAR
STARTCHAR oe
ENCODING 339
SWIDTH 798 0
DWIDTH 8 0
BBX 8 4 0 1
BITMAP
7D7C
93F9
A2D1
6EBD
ENDCHAR
STARTCHAR circumflex
ENCODING 710
SWIDTH 483 0
DWIDTH 5 0
BBX 4 2 1 7
BITMAP
24
49
ENDCHAR
STARTCHAR caron
ENCODING 711
SWIDTH 428 0
DWIDTH 4 0
BBX 3 3 1 7
BITMAP
04
90
50
ENDCHAR
STARTCHAR ring
ENCODING 730
SWIDTH 330 0
DWIDTH 3 0
BBX 3 3 0 8
BITMAP
74
44
74
ENDCHAR
STARTCHAR tilde
ENCODING 732
SWIDTH 433 0
DWIDTH 4 0
BBX 4 2 0 7
BITMAP
74
1E
ENDCHAR
STARTCHAR mu.dup1
ENCODING 956
SWIDTH 634 0
DWIDTH 6 0
BBX 7 8 0 -3
BITMAP
9000
9180
9180
B1C4
6EB4
6000
6000
6000
ENDCHAR
STARTCHAR endash
ENCODING 8211
SWIDTH 436 0
DWIDTH 4 0
BBX 4 1 0 2
BITMAP
7E
ENDCHAR
STARTCHAR emdash
ENCODING 8212
SWIDTH 651 0
DWIDTH 7 0
BBX 5 2 1 1
BITMAP
5BC0
5000
ENDCHAR
STARTCHAR quoteleft
ENCODING 8216
SWIDTH 287 0
DWIDTH 3 0
BBX 2 3 0 5
BITMAP
10
70
70
ENDCHAR
STARTCHAR quoteright
ENCODING 8217
SWIDTH 291 0
DWIDTH 3 0
BBX 3 3 0 5
BITMAP
74
24
10
ENDCHAR
STARTCHAR quotesinglbase
ENCODING 8218
SWIDTH 272 0
DWIDTH 3 0
BBX 2 3 0 -1
BITMAP
70
20
10
ENDCHAR
STARTCHAR quotedblleft
ENCODING 8220
SWIDTH 445 0
DWIDTH 4 0
BBX 4 4 0 4
BITMAP
11
25
76
76
ENDCHAR
STARTCHAR quotedblright
ENCODING 8221
SWIDTH 444 0
DWIDTH 4 0
BBX 4 3 0 5
BITMAP
7A
26
14
ENDCHAR
STARTCHAR quotedblbase
ENCODING 8222
SWIDTH 482 0
DWIDTH 5 0
BBX 5 3 0 -2
BITMAP
7740
2600
1100
ENDCHAR
STARTCHAR bullet
ENCODING 8226
SWIDTH 351 0
DWIDTH 4 0
BBX 3 2 0 3
BITMAP
78
78
ENDCHAR
STARTCHAR guilsinglleft
ENCODING 8249
SWIDTH 465 0
DWIDTH 5 0
BBX 4 6 0 -1
BITMAP
04
08
74
18
05
01
ENDCHAR
STARTCHAR guilsinglright
ENCODING 8250
SWIDTH 449 0
DWIDTH 5 0
BBX 4 6 0 -1
BITMAP
20
18
0E
28
20
40
ENDCHAR
STARTCHAR fraction
ENCODING 8260
SWIDTH 406 0
DWIDTH 4 0
BBX 7 9 -2 0
BITMAP
0004
0014
0010
0080
0100
0500
0400
1000
5000
ENDCHAR
STARTCHAR foursuperior
ENCODING 8308
SWIDTH 473 0
DWIDTH 5 0
BBX 5 6 0 3
BITMAP
0400
1800
0900
7F00
0900
2F40
ENDCHAR
STARTCHAR Euro
ENCODING 8364
SWIDTH 799 0
DWIDTH 8 0
BBX 8 8 0 0
BITMAP
02FA
0A46
1C01
2D40
7900
6C04
1E04
06E0
ENDCHAR
STARTCHAR minus
ENCODING 8722
SWIDTH 436 0
DWIDTH 4 0
BBX 4 1 0 2
BITMAP
7E
ENDCHAR
STARTCHAR f_f
ENCODING 64256
SWIDTH 467 0
DWIDTH 5 0
BBX 6 15 0 -3
BITMAP
0B00
1700
12E0
2670
24A0
2800
7F40
2500
2500
3200
3340
27C0
2A00
2C00
BF00
ENDCHAR
STARTCHAR .notdef
ENCODING -1
SWIDTH 270 0
DWIDTH 3 0
BBX 3 6 0 0
BITMAP
B4
00
00
00
00
B4
ENDCHAR
STARTCHAR .null
ENCODING -1
SWIDTH 0 0
DWIDTH 0 0
BBX 1 1 0 0
BITMAP
00
ENDCHAR
STARTCHAR nonmarkingreturn
ENCODING -1
SWIDTH 270 0
DWIDTH 3 0
BBX 1 1 0 0
BITMAP
00
ENDCHAR
STARTCHAR dieresis.case
ENCODING -1
SWIDTH 393 0
DWIDTH 4 0
BBX 4 1 0 8
BITMAP
69
ENDCHAR
STARTCHAR o.cmp
ENCODING -1
SWIDTH 400 0
DWIDTH 4 0
BBX 7 8 0 2
BITMAP
0028
0008
0014
0060
6B80
9600
9A00
7D00
ENDCHAR
STARTCHAR n_n
ENCODING -1
SWIDTH 1024 0
DWIDTH 10 0
BBX 10 7 0 -1
BITMAP
200000
F3DEE0
349970
249960
14AFF0
7ED010
001000
ENDCHAR
STARTCHAR a_a
ENCODING -1
SWIDTH 911 0
DWIDTH 9 0
BBX 10 7 0 0
BITMAP
007D00
006700
780300
99BF00
7EA300
9ABB40
B6C1D0
ENDCHAR
STARTCHAR t_h
ENCODING -1
SWIDTH 854 0
DWIDTH 9 0
BBX 9 13 0 -3
BITMAP
0BC000
018000
048000
188000
FFD000
25AE00
25C300
25A640
1A5740
0BE300
0BE700
002F00
000140
ENDCHAR
STARTCHAR s_s
ENCODING -1
SWIDTH 654 0
DWIDTH 7 0
BBX 7 8 0 -1
BITMAP
1EF0
2650
0480
0550
4270
9A74
2E74
0BE0
ENDCHAR
STARTCHAR t_t
ENCODING -1
SWIDTH 569 0
DWIDTH 6 0
BBX 6 9 0 -1
BITMAP
0240
1B40
FE00
3500
3600
3750
32D0
25C0
0B80
ENDCHAR
STARTCHAR e_e
ENCODING -1
SWIDTH 782 0
DWIDTH 8 0
BBX 8 6 0 0
BITMAP
6DB8
9A88
F648
A1A5
2FD1
007D
ENDCHAR
STARTCHAR o_o
ENCODING -1
SWIDTH 751 0
DWIDTH 8 0
BBX 10 9 0 1
BITMAP
000030
000010
000020
000190
2F9E40
A28800
924D00
92F800
2D0000
ENDCHAR
STARTCHAR l_l
ENCODING -1
SWIDTH 573 0
DWIDTH 6 0
BBX 7 10 -1 -1
BITMAP
1AD0
6890
1890
18A0
18A0
1CA0
1CB0
1CB8
7C00
0500
ENDCHAR
STARTCHAR z_z
ENCODING -1
SWIDTH 875 0
DWIDTH 9 0
BBX 9 7 0 -1
BITMAP
07F000
005000
7E8000
098400
26F980
600180
FFFE00
ENDCHAR
STARTCHAR j_j
ENCODING -1
SWIDTH 577 0
DWIDTH 6 0
BBX 7 14 -1 -6
BITMAP
00C0
00C0
0600
01E0
1FB0
0774
0264
0258
0158
B158
9214
8714
7F60
02D0
ENDCHAR
STARTCHAR f_b
ENCODING -1
SWIDTH 731 0
DWIDTH 7 0
BBX 9 13 -1 -2
BITMAP
02D000
052000
09D000
08A000
2DE000
6C2000
0C2000
0C2000
0C3E00
0C2340
0D7E00
0F8000
100000
ENDCHAR
STARTCHAR f_k
ENCODING -1
SWIDTH 708 0
DWIDTH 7 0
BBX 7 11 0 -1
BITMAP
0500
3F80
19C0
2900
6900
2574
2680
2684
26D4
A678
2FC0
ENDCHAR
STARTCHAR f_h
ENCODING -1
SWIDTH 873 0
DWIDTH 9 0
BBX 10 13 -1 -2
BITMAP
02D000
052000
08A000
08A400
0EF000
6C2000
1C2000
0C2B80
0C35C0
0C72E0
0DF400
1F4000
100000
ENDCHAR
ENDFONT
